# xmcd
#
# Track frame offsets:
#	150
#	18114
#	36297
#	56034
#	69073
#	103980
#	126351
#	148846
#	171642
#	189855
#	216236
#
# Disc length: 3348 seconds
#
# Revision: 0
# Processed by: cddbd v1.5.2PL0 Copyright (c) Steve Scherf et al.
# Submitted via: dBpowerAMP V4.0
#
DISCID=a40d120b
DTITLE=Via Del Blues - Trouble Trouble
DYEAR=1900
DGENRE=Blues
TTITLE0=Road boogie
TTITLE1=it's toobad
TTITLE2=This morning
TTITLE3=Linda lou
TTITLE4=Big heart baby
TTITLE5=Mr. Panzman
TTITLE6=Want myself
TTITLE7=Hop Hop Hop Hop
TTITLE8=I think that
TTITLE9=Continental op
TTITLE10=Trouble Trouble
EXTD=
EXTT0=
EXTT1=
EXTT2=
EXTT3=
EXTT4=
EXTT5=
EXTT6=
EXTT7=
EXTT8=
EXTT9=
EXTT10=
PLAYORDER=
